<svg xmlns="http://www.w3.org/2000/svg" height="877.333" width="695.893">
  <path d="M348.333 0S269.667 32 251 42.667c-18.667 10.666-88 52-90.667 58.666-2.666 6.667 0 110.667-1.333 120-1.333 9.334-3.967 24.65-5.3 33.983-1.333 9.333 5.3 23.35 2.633 35.35-2.666 12-4 44-2.666 57.334 1.333 13.333-6.018 18.633-4.684 26.633 1.333 8-.65 18.7-.65 18.7s-29.333 16-44 25.334c-14.666 9.333-40 18.666-52 28-12 9.333-44 17.333-44 25.333S7 512 5.667 528c-1.334 16 0 193.333 0 193.333s-5.334 4-5.334 9.334C.333 736-1 833.333 1.667 857.333 2.498 864.831 43 862.667 63 868c9.11 2.43 58.667-6.667 77.333-5.333 18.667 1.333 86.667 6.666 112 8 25.334 1.333 96 1.333 109.334 1.333 13.333 0 64 5.333 64 5.333s46.666-41.333 68-60c21.333-18.666 74.666-64 77.333-70.666 2.667-6.667 2.667-9.334 0-16-2.667-6.667-1.333-190.667 0-208 1.333-17.334 46.667-44 56-49.334 9.333-5.333 61.333-33.333 61.333-38.666C688.333 429.333 699 308 695 281.333c-4-26.666 0-160-1.333-173.333-1.334-13.333 0-56-5.334-66.667C683 30.667 685.667 24 685.667 24s-69.334 1.333-85.334-1.333C584.333 20 511 16 491 10.667 471 5.333 348.333 0 348.333 0" fill="#231f20"/>
  <path d="M232.333 133.333S217.667 122.667 215 140c-2.667 17.333-6.667 34.667-4 46.667s6.667 30.666 5.333 50.666c-1.333 20 5.334 26.667 1.334 42.667-4 16-14.667 33.333-13.334 60 1.334 26.667-4 64 1.334 70.667 5.333 6.666-5.334 32 4 34.668C219 448 228.333 444 249.667 452c21.333 8 72 13.333 80 10.667 8-2.667 68-12 110.666-4 42.667 8 76 8 80 4s6.667-31.334 4-48c-2.664-16.654-12-86.667-12-100.667 0-5.84 2.2-20.193 5.334-41.333 2.765-18.658 8-36.916 8-40.667 0-8 1.802-26.439-2.667-41.333-4-13.334-1.333-14-5.333-25.334-1.79-5.068-18-12.666-20.667-12-2.667.667-16-4-23.333-4-7.334 0-46.667-3.333-55.334-1.333-8.666 2-46 4-50.666 2.667-4.667-1.334-24-10-47.334-6.667-23.333 3.333-38-.667-49.333-2.667-11.333-2-38.667-8-38.667-8" fill="#295fac"/>
  <path d="M355 160l-104 53.333L249.667 284s32.666 1.333 43.333-1.333c13.895-3.472 28.667-4.667 28.667-4.667S323 306 317 327.333c-3.628 12.9-5.837 30.78-10.667 60.667-4.724 29.233-3.609 50.164-3.609 50.164s22.617 8.453 28.503 9.56c5.886 1.107 16.553 4.78 27.22-2.39 10.666-7.17 15.886-2.667 21.886-2.667 20.14 0 9.334 2 9.334 2s5.318-25.884 8-52c1.41-13.739.642-28.896 1.057-37.447 1.61-33.22-.39-69.22-.39-69.22l4 2.667 12.666.666 21.333 9.334 22.894 11.496-.227-58.83s-4.23-1.938-3.333-10c.666-6-42.78-33.056-59.334-46.113C379.78 182.164 355 160 355 160M371 48.683s-32 5.481-53.333 20.926c-21.334 15.448-53.334 18.944-29.61 21.335 23.723 2.39 33.106 8.276 67.496 13.056 34.391 4.78 66.391-1.333 79.447-1.333 13.057 0 26.667 4.277 44 6.666 9.468 1.306 28.277.554 28.277.554s2.39-10.667 21.332-16.554c18.944-5.886 36.554-14.389 43.724-22.666 7.171-8.276-3.22-10.114-16-12-23.408-3.456-20.472-8.791-52.553-8C449.667 52 371 48.683 371 48.683M641.667 105.333s-45.334 24-54.667 32c-9.333 8-18.667 13.334-18.667 13.334s-4 12-1.333 18.666c2.667 6.667 4.033 9.95 2.7 15.283-1.333 5.333-1.333 17.333-1.333 17.333S561.667 204 563 212c1.333 8 6.667 17.333 6.667 24 0 6.667 4 25.333 4 37.333v156L568.333 436l8 6.667s12-13.334 20-17.334 14.667-13.333 24-16C629.667 406.667 647 396 647 396s5.3-36-1.333-66.667c-1.715-7.926-1.334-16-1.334-30.666 0-14.667 1.334-42.667 2.667-52 1.333-9.334 0-30.667 0-30.667s10.667-36 12-50.667c1.333-14.666 0-36-1.333-41.333-1.334-5.333 0-17.333 0-17.333l-16-1.334M452.333 509.333l29.334-8 20 1.334s0 8 1.333 14.666c1.333 6.667 5.333 44 4 52-1.333 8-4 13.334 0 20 4 6.667 5.333 32 4 44-1.333 12-1.333 26.667 0 38.667s1.333 24 2.667 37.333c1.333 13.334-1.334 25.334-1.334 25.334s-13.333 26.666-26.666 36C472.333 780 463 786.667 455 792c-8 5.333-17.333-1.333-17.333-1.333s-.68-106.427 2.666-124c2.175-11.414.667-37.334 4.667-38 .415-10.774-.423-23.467 0-32.667 5.333-.667 3.71-14.52 3.333-20-.41-5.955 0-17.333 2.667-28 1.225-18.117 1.333-38.667 1.333-38.667M323.167 510.333s-40.834-3.666-49.5-3.333c-8.667.333-20.667-2.667-25.5-4.5-3.943-1.495-9.834-.167-18.167.833-8.333 1-12.333.334-15.333-.333s-12.5-4.667-14.167-4.333C198.833 499 198.667 500 195 500s-6.333-1.333-10 .667-6.667 6-14.333 6.333c-7.667.333-22-3-27-4.333-5-1.334-11.667-6.667-16.334-6.334-4.666.334-2 12.334-2.666 17C124 518 119 522.667 118.333 526c-.666 3.333 3.334 33.333 1.334 35.333s-4 27-8.334 35.667c-4.333 8.667-9 34.667-7.666 40.333C105 643 103 681.667 106.333 685c3.334 3.333 3 25 3 34s0 39.667-.333 44c-.333 4.333-4 11-3.667 14 .334 3 .334 14.667-.666 16.333-1 1.667-3.334 17.667-1.667 19 1.667 1.334 11 8.334 21.667 11.667 10.666 3.333 58 .667 59.666-.667 1.667-1.333 16.334-5.666 19.334-4.666s17 4 21 3.666c4-.333 17 5.334 20 4.334s11.084-1 14.417-2 19.916 1 26.583.333c6.666-.667 17-4.333 20-4.333s4.333.333 10 1c5.666.666-5.334-6.667-6.334-10.667s-5.666-23-3-29c2.667-6 6.334-20.333 6.667-25.333.333-5-3-52.667-1-59.667s1.667-46.333 6.333-55c4.667-8.667 5.334-50.667 6.334-58 1-7.333 1-44 2-52s-3.5-21.667-3.5-21.667" fill="#fff"/>
  <path d="M127.667 496.333s-16.334.334-23.667 0c-2.516-.113-4.128-.706-6.667-2-9.666 0-14.147-4.86-15.806-4.86-2.667 0-9.86-.14-12.527 3.86s1 8-1 9.667c-2 1.667-2.333 1.333-2.667 12.667-.333 11.333.334 41.666-2 44-2.333 2.333-3.666 7-4.333 17.666-.667 10.667 3.667 15 2.667 21.334-1 6.333 2.333 8.666 3.333 14 1 5.333-.333 33-3.667 37.666-3.333 4.667-2.666 15-4 21.667-1.333 6.667-2.666 5.667-2.666 11.333 0 5.667-1 36 0 51.334 1 15.333 1 34-2 35s-3 .666-2.667 8.666c.333 8 .667 20.334.667 22.667 0 2.333-2.334-2.667-2.667 2.333-.333 5 1 4.334 7.667 4 6.666-.333 26.333-2.666 28.666-.666 2.334 2 13.667 2.666 16.334 5.666 2.666 3 6.166 2.334 6.166 2.334s-1.166-7.334 1.834-13.334S111 781.667 111 779c0-2.667 3.333-2.333 3.333-6v-71.333c0-9.334 0-21.334-.666-24C113 675 111 677 110 674.333c-1-2.666.333-32.333.667-36 .333-3.666 3-19 3-21.666 0-2.667 3.752-30.124 5.752-30.458 2-.333 1.038-13.525 4.038-19.858 3-6.334-1.79-35.684.543-39.018 2.333-3.333 5.333-7 5-12-.333-5-1.333-19-1.333-19M323 510s-6 77.333-7.333 94.667c-1.334 17.333-10 75.333-8.667 102 1.333 26.666 1.333 53.333-4 65.333-3.468 7.803-1.333 44 2.667 46.667 10.525 7.017 22.666 5.333 34.666 5.333 12 0 33.334 2.667 33.334 2.667s1.518-25.806 3.341-56.038c-.675-47.962 1.325-95.962 3.325-106.629 1.266-6.747 3.76-26.139 6-56 2.06-27.453 6-52.336 6-60 0-16 .667-31.333.667-31.333s-12 .666-16-3.334c-3.917-.342-14.237.667-16.667.667-5.829 0-20.493 1.012-30.333-.333-5-4-7-3.667-7-3.667M200.333 498.667s11.334-1.334 11.334 1.333 6.666 4 10.666 3.333c4-.666 24.667-2.666 26.667-.666s2.667 10 5.333 14.666c2.667 4.667.443 24.198 1.334 34 1.333 14.667-5.334 39.803-5.334 50 0 14.667.667 13.334.667 26 0 9.912 4.667 20 4.667 38 0 21.427-2.667 34-4.667 47.334-2 13.333-2 18-2 49.333s8.95 29.312 10.667 53.333c.666 9.334-.667 9.334-.667 9.334s-5.333 4-13.333 4S237 824 221 824s-21.333-4-26-2.667c-4.667 1.334-12.667 2.667-12.667 2.667s2.667-8 .667-12.667c-2-4.666.667-57.333-2-60-2.667-2.666-6-10.666-4.667-49.333 1.334-38.667 4-68 4-73.333 0-5.334 2.667-45.334 8-68.667 5.383-23.548 12-61.333 12-61.333" fill="#e51636"/>
  <path d="M591.792 696.01h3.421c2.219 0 3.604-.093 4.156-.28.552-.189.986-.511 1.298-.97.312-.457.469-1.03.469-1.719 0-.77-.207-1.393-.617-1.866-.412-.475-.992-.774-1.743-.899-.375-.052-1.5-.079-3.375-.079h-3.609zm-4.625 13.22v-22.907h9.734c2.448 0 4.227.205 5.336.617 1.11.412 1.998 1.144 2.664 2.196.667 1.052 1 2.255 1 3.61 0 1.718-.505 3.137-1.516 4.257-1.01 1.12-2.521 1.825-4.53 2.117 1 .583 1.825 1.224 2.476 1.921.65.699 1.529 1.938 2.633 3.719l2.796 4.47h-5.53l-3.345-4.985c-1.188-1.781-2-2.904-2.437-3.368-.437-.462-.901-.781-1.39-.953-.49-.172-1.266-.257-2.329-.257h-.937v9.562h-4.625" fill="#231f20"/>
  <path d="M615.49 694.667c0 9.204-8.207 16.666-18.334 16.666-10.127 0-18.333-7.462-18.333-16.666S587.029 678 597.156 678c10.127 0 18.333 7.463 18.333 16.667z" fill="none" stroke="#231f20" stroke-width="2.6666"/>
</svg>
